<?xml version="1.0" encoding="UTF-8"?>
<svg version="1.1" xmlns="http://www.w3.org/2000/svg" width="487" height="396">
<path d="M0 0 C8.86453917 6.59823888 14.53604931 14.57340106 20 24 C20.53077148 24.90814453 21.06154297 25.81628906 21.60839844 26.75195312 C25.11292925 32.75694041 28.5821462 38.7816126 32.03356934 44.81726074 C35.50541498 50.88798459 39.00239727 56.94409305 42.5 63 C43.75011282 65.16660158 45.00011263 67.33326836 46.25 69.5 C47.178125 71.10875 47.178125 71.10875 48.125 72.75 C53.75 82.5 53.75 82.5 55.62695312 85.75341797 C56.8704051 87.90871311 58.11389436 90.06398673 59.35742188 92.21923828 C62.24462875 97.22337674 65.1315043 102.2277052 68.01696777 107.23284912 C69.02619104 108.98341241 70.03553836 110.73390411 71.04492188 112.484375 C72.3016766 114.66392165 73.55820586 116.84359832 74.81445312 119.0234375 C78.85416442 126.02861283 82.9193684 133.01858507 87 140 C91.82991105 138.46855447 95.93796414 136.43989217 100.25 133.8125 C101.76618915 132.90501595 103.28316888 131.99885194 104.80078125 131.09375 C105.62916504 130.59875 106.45754883 130.10375 107.31103516 129.59375 C112.3266789 126.62097695 117.38419132 123.72062147 122.4375 120.8125 C123.53304199 120.18126221 124.62858398 119.55002441 125.75732422 118.8996582 C128.01921336 117.59641042 130.2812596 116.29343524 132.54345703 114.99072266 C137.19792587 112.31007999 141.85131656 109.62757119 146.50415039 106.9440918 C148.67632342 105.69132046 150.84867314 104.4388554 153.02124023 103.18676758 C154.02227783 102.60950928 155.02331543 102.03225098 156.0546875 101.4375 C157.03139404 100.87498535 158.00810059 100.3124707 159.0144043 99.73291016 C161.08724521 98.52978441 163.15338369 97.31506618 165.21411133 96.09130859 C166.26107178 95.47078613 167.30803223 94.85026367 168.38671875 94.2109375 C169.32217529 93.65196777 170.25763184 93.09299805 171.22143555 92.51708984 C185.37492876 84.78931488 203.11091681 83.47528407 218.625 87.625 C234.41332135 93.00568971 247.36448363 102.97395709 255 118 C262.60019027 134.25709149 264.02776592 150.81114601 258.21875 167.90625 C249.51401951 190.00287356 231.56299519 200.3904019 211.6875 211.2890625 C206.16949935 214.32331898 200.74755597 217.4950098 195.34008789 220.72119141 C176.90377792 231.70694236 158.94840393 238.9015313 137.05078125 234.31640625 C133.9057199 233.40210012 130.99183522 232.32924155 128 231 C127.07445312 230.59910156 126.14890625 230.19820312 125.1953125 229.78515625 C111.76088975 223.2201763 103.28597294 212.6970058 96 200 C95.35853027 198.89027832 94.71706055 197.78055664 94.05615234 196.63720703 C89.32679413 188.44960616 84.64915021 180.23338735 80 172 C76.53768664 173.09003281 73.36440304 174.18196036 70.2578125 176.06640625 C69.59217285 176.46520996 68.9265332 176.86401367 68.24072266 177.27490234 C67.54253418 177.69980957 66.8443457 178.1247168 66.125 178.5625 C64.61518442 179.46324787 63.10475247 180.36296329 61.59375 181.26171875 C60.830625 181.71724121 60.0675 182.17276367 59.28125 182.64208984 C40.32871235 193.92355543 22.08542608 202.19233497 -0.55078125 197.12890625 C-19.35560681 192.04365765 -31.69965688 179.77246569 -41.24462891 163.36889648 C-42.28610293 161.54955185 -43.32271943 159.72741971 -44.35498047 157.90283203 C-46.07330879 154.87063794 -47.81677038 151.85407259 -49.56640625 148.83984375 C-52.75034202 143.35002498 -55.91606628 137.84996294 -59.07666016 132.34667969 C-61.59054606 127.97242887 -64.11171952 123.60240862 -66.63427734 119.2331543 C-67.87425506 117.08436801 -69.11287085 114.93479521 -70.35009766 112.78442383 C-73.24382822 107.75748958 -76.14776799 102.73749743 -79.09432983 97.74136353 C-80.12954233 95.98483308 -81.16101203 94.22615738 -82.19140625 92.46679688 C-83.47962778 90.26976153 -84.77471514 88.07673078 -86.078125 85.88867188 C-95.44403657 69.8637001 -99.8462704 52.50577862 -95.05859375 34.1015625 C-90.10530852 17.15093728 -79.8061552 4.02150263 -64.37109375 -4.44140625 C-43.19685239 -14.76654578 -19.49159012 -13.05307777 0 0 Z M-62 20 C-62.61488281 20.51304688 -63.22976562 21.02609375 -63.86328125 21.5546875 C-70.98355626 27.92786727 -75.10855931 37.52257796 -76 47 C-76.32376305 60.6742276 -69.9116937 71.66934529 -63.125 83.125 C-62.12550974 84.834473 -61.1260313 86.54395305 -60.1272583 88.25384521 C-59.09910534 90.0120143 -58.06784779 91.76833331 -57.03613281 93.52441406 C-53.82472609 98.99735331 -50.66573329 104.50056645 -47.5 110 C-46.25928769 112.14983949 -45.01840154 114.29957867 -43.77734375 116.44921875 C-41.18104952 120.94887504 -38.59066713 125.45189003 -36.00390625 129.95703125 C-32.87305354 135.40744749 -29.73050515 140.85089303 -26.57421875 146.28662109 C-25.61268779 147.94394974 -24.65370592 149.60276488 -23.69921875 151.26416016 C-16.51776626 163.73607271 -9.08390714 171.89697563 4.88671875 176.640625 C8.10502425 177.1879154 11.30731155 177.2662177 14.5625 177.3125 C15.21541016 177.34150391 15.86832031 177.37050781 16.54101562 177.40039062 C27.56121892 177.53854168 36.91414704 171.63859468 46.0625 166.125 C47.07376953 165.52558594 48.08503906 164.92617188 49.12695312 164.30859375 C51.12302552 163.12354626 53.11486842 161.93134065 55.10205078 160.73144531 C57.04437445 159.5709601 59.00153695 158.43497981 60.97216797 157.32324219 C61.88756348 156.80149414 62.80295898 156.27974609 63.74609375 155.7421875 C64.56650146 155.28440918 65.38690918 154.82663086 66.23217773 154.35498047 C67.10724976 153.68426514 67.10724976 153.68426514 68 153 C68 149.47400087 67.15383374 148.12846975 65.4296875 145.08203125 C64.87031494 144.0876001 64.31094238 143.09316895 63.73461914 142.06860352 C63.12094482 140.99408936 62.50727051 139.9195752 61.875 138.8125 C61.24263428 137.69480225 60.61026855 136.57710449 59.95874023 135.42553711 C54.57273456 125.93412853 49.08137075 116.50447809 43.5625 107.08984375 C39.86786636 100.7842949 36.21158203 94.45699366 32.5625 88.125 C31.94141357 87.04774658 31.32032715 85.97049316 30.68041992 84.8605957 C27.50948845 79.3591465 24.34176333 73.85586119 21.17578125 68.3515625 C18.06463386 62.94469905 14.94584455 57.54232108 11.81982422 52.14404297 C10.60345818 50.04257237 9.38894856 47.94002617 8.17626953 45.83642578 C6.43744302 42.82406592 4.6888592 39.81758661 2.9375 36.8125 C2.42558105 35.92208008 1.91366211 35.03166016 1.38623047 34.11425781 C-5.13432648 22.98704216 -12.83959715 14.90099618 -25.5625 11.0625 C-38.81200894 8.06402556 -51.82897557 10.70462668 -62 20 Z M167.875 118.875 C166.165527 119.87449026 164.45604695 120.8739687 162.74615479 121.8727417 C160.9879857 122.90089466 159.23166669 123.93215221 157.47558594 124.96386719 C152.00264325 128.17527592 146.49922277 131.33389476 141 134.5 C138.86196547 135.73565339 136.72394471 136.9713306 134.5859375 138.20703125 C130.58509151 140.51623223 126.57753955 142.81285294 122.56085205 145.09432983 C120.15850054 146.45953665 117.75884109 147.82943671 115.359375 149.19970703 C113.66666782 150.16376858 111.97009646 151.12103533 110.2734375 152.078125 C108.73429688 152.95791016 108.73429688 152.95791016 107.1640625 153.85546875 C105.80982178 154.62346802 105.80982178 154.62346802 104.42822266 155.40698242 C101.93978429 157.03950407 100.02206931 158.8257604 98 161 C113.45074917 192.51376994 113.45074917 192.51376994 140 213 C162.14779286 218.4019007 178.15595483 206.68427463 196.45703125 195.70703125 C199.82825235 193.68550773 203.22579496 191.71549314 206.63671875 189.76171875 C207.60891357 189.20009033 208.5811084 188.63846191 209.58276367 188.05981445 C211.46777965 186.97114634 213.35700779 185.88972476 215.2512207 184.81713867 C226.13871794 178.48687246 234.92204377 171.06475021 239.06640625 158.859375 C242.03132066 147.6379052 241.21054014 137.4361833 236 127 C230.36805882 118.11636067 222.06643722 110.35416847 211.734375 107.44140625 C208.05509767 106.84746577 204.40700278 106.60161677 200.6875 106.5 C200.01259521 106.46914307 199.33769043 106.43828613 198.64233398 106.40649414 C187.39212291 106.40516606 177.24001537 113.32686745 167.875 118.875 Z " fill="#2CD881" transform="translate(161,96)"/>
<path d="M0 0 C14.648425 11.16070476 22.30896653 25.31432832 25.51953125 43.10546875 C27.58183729 59.82188438 22.64780062 75.44407776 12.86328125 88.94921875 C2.75810127 100.79604555 -11.54624038 109.69871824 -27.28686523 111.22119141 C-45.34842395 112.09301359 -61.13539506 108.87715906 -75.1875 96.75 C-88.59260598 83.98222077 -95.75432865 69.43695253 -96.375 50.875 C-96.08811501 34.13441723 -90.34450729 18.58969757 -78.64453125 6.3515625 C-56.68957196 -13.17116349 -24.71512117 -16.47674744 0 0 Z M-63.875 22.25 C-71.99956283 30.88325639 -75.49492762 41.19547777 -75.24609375 52.94921875 C-74.38628157 63.60816028 -69.50508055 73.00957079 -61.75 80.3125 C-51.19154758 89.13800845 -40.39002633 91.17779593 -27 90 C-16.1597889 87.7893427 -7.92228733 81.19096659 -1.50390625 72.375 C4.19705149 63.37192908 6.09238808 53.41051533 4.375 42.875 C1.62060705 31.54937108 -4.91259367 22.09993755 -14.625 15.625 C-31.38785276 6.23988804 -50.1545476 9.41547086 -63.875 22.25 Z " fill="#2CD881" transform="translate(297,75)"/>
<path d="" fill="#002929" transform="translate(0,0)"/>
</svg>
